# xmcd CD database file
#
# Track frame offsets:
#	180
#	14605
#	28736
#	40702
#	54839
#	68390
#	82186
#	96170
#	108575
#	121127
#	132968
#	148431
#	162199
#	175670
#	188890
#	202984
#	215201
#	227780
#	241113
#	254658
#	267621
#	281180
#
# Disc length: 3901 seconds
#
# Revision: 1
# Processed by: cddbd v1.5.2PL0 Copyright (c) Steve Scherf et al.
# Submitted via: CDex 1.70beta2
#
DISCID=4a0f3b16
DTITLE=Various Artist - river walk vol.-2 - bring back the dixie cd-1
DYEAR=2006
DGENRE=Jazz
TTITLE0=george wettling - after you've gone
TTITLE1=j.c. higginbotham - it should be you
TTITLE2=clarence williams - senegalese stomp
TTITLE3=original dixieland jazz band - livery stable blues
TTITLE4=reb spikers majors and minors - my mammy's blues
TTITLE5=j. neal montgomery and his orchestra - auburn ave. stomp
TTITLE6=king oliver - snag it
TTITLE7=original dixieland jazz band - home again blues
TTITLE8=original dixieland jazz band - toddlin' blues
TTITLE9=original dixieland jazz band - dixie jazz band one step
TTITLE10=red nichols - five pennies
TTITLE11=eddie condon - california here i come
TTITLE12=roger wolfe kahn and his orchestra - just the same
TTITLE13=lou weimer - merry widdow's got a sweetie now 
TTITLE14=louis armstrong - cornet shop suey
TTITLE15=bud freeman - the eel
TTITLE16=king oliver's creole jazz band - sweet lovin' man
TTITLE17=henry allen - peasin' paul
TTITLE18=clarence williams - wild cat blues
TTITLE19=bix beiderbecke - way down yonder in new orleans
TTITLE20=jelly roll morton - blue blood blues
TTITLE21=original dixieland jazz band - original dixieland one step
EXTD=YEAR: 2006
EXTT0=
EXTT1=
EXTT2=
EXTT3=
EXTT4=
EXTT5=
EXTT6=
EXTT7=
EXTT8=
EXTT9=
EXTT10=
EXTT11=
EXTT12=
EXTT13=
EXTT14=
EXTT15=
EXTT16=
EXTT17=
EXTT18=
EXTT19=
EXTT20=
EXTT21=
PLAYORDER=
